<?xml version="1.0" encoding="UTF-8"?>
<svg width="400" height="300" viewBox="0 0 400 300" fill="none" xmlns="http://www.w3.org/2000/svg">
  <rect width="400" height="300" fill="#f8fafc"/>
  
  <!-- Building/Structure -->
  <rect x="150" y="100" width="100" height="150" fill="#dbeafe" rx="8"/>
  <rect x="170" y="120" width="60" height="110" fill="#93c5fd" rx="4"/>
  
  <!-- Windows -->
  <rect x="180" y="130" width="15" height="20" fill="#eff6ff" rx="2"/>
  <rect x="205" y="130" width="15" height="20" fill="#eff6ff" rx="2"/>
  <rect x="180" y="160" width="15" height="20" fill="#eff6ff" rx="2"/>
  <rect x="205" y="160" width="15" height="20" fill="#eff6ff" rx="2"/>
  <rect x="180" y="190" width="15" height="20" fill="#eff6ff" rx="2"/>
  <rect x="205" y="190" width="15" height="20" fill="#eff6ff" rx="2"/>
  
  <!-- Growth Chart -->
  <path d="M80 220 L100 180 L120 200 L140 150 L160 170 L180 130" stroke="#10b981" stroke-width="3" fill="none"/>
  <circle cx="80" cy="220" r="4" fill="#10b981"/>
  <circle cx="100" cy="180" r="4" fill="#10b981"/>
  <circle cx="120" cy="200" r="4" fill="#10b981"/>
  <circle cx="140" cy="150" r="4" fill="#10b981"/>
  <circle cx="160" cy="170" r="4" fill="#10b981"/>
  <circle cx="180" cy="130" r="4" fill="#10b981"/>
  
  <!-- Money Bag -->
  <path d="M280 180C280 200 260 220 240 220C220 220 200 200 200 180C200 160 220 140 240 140C260 140 280 160 280 180Z" fill="#fbbf24"/>
  <rect x="220" y="140" width="40" height="20" fill="#fbbf24"/>
  <path d="M230 160L250 160" stroke="#92400e" stroke-width="2" stroke-linecap="round"/>
  
  <!-- Dollar Sign -->
  <text x="240" y="200" font-family="Arial" font-size="40" font-weight="bold" fill="#065f46" text-anchor="middle">₹</text>
  
  <!-- Title -->
  <text x="200" y="280" font-family="Inter, Arial" font-size="20" font-weight="bold" fill="#1e293b" text-anchor="middle">
    Smart Investment
  </text>
</svg>