<?xml version="1.0" encoding="UTF-8"?>
<svg width="40" height="40" viewBox="0 0 40 40" fill="none" xmlns="http://www.w3.org/2000/svg">
  <!-- Infinity Symbol -->
  <circle cx="20" cy="20" r="18" fill="#f0f9ff"/>
  <path d="M15 20C15 24.9706 19.0294 29 24 29C28.9706 29 33 24.9706 33 20C33 15.0294 28.9706 11 24 11C19.0294 11 15 15.0294 15 20Z" fill="#2563eb"/>
  <path d="M25 20C25 24.9706 29.0294 29 34 29C38.9706 29 43 24.9706 43 20C43 15.0294 38.9706 11 34 11C29.0294 11 25 15.0294 25 20Z" fill="#1e40af"/>
  <path d="M24 29C28.9706 29 33 24.9706 33 20C33 15.0294 28.9706 11 24 11V29Z" fill="#3b82f6"/>
  
  <!-- Growth Arrow -->
  <path d="M20 10L24 14L20 18" stroke="#10b981" stroke-width="2" stroke-linecap="round" stroke-linejoin="round"/>
</svg>